<svg xmlns="http://www.w3.org/2000/svg" viewBox="0 0 1296 1303.77"><defs><style>.cls-1{fill:#e0d627;}.cls-2{font-size:60.49px;font-family:Hominis;}</style></defs><title>logo</title><g id="Layer_2" data-name="Layer 2"><g id="Layer_1-2" data-name="Layer 1"><rect class="cls-1" width="1296" height="1303.77"/><text class="cls-2" transform="translate(323.94 1238.83)"><tspan xml:space="preserve"> Austin Texas</tspan></text><text/><path d="M142.52,272l4.07,2.53q-4.12-18.74-8.24-37.46,20.94-4.56,41.93-8.85l-6-29.55,3.29-.66,3.58,17.9c4.12-.83,6.18-1.23,10.3-2l.32,1.64-10.29,2,1.32,6.57c4.1-.82,6.16-1.23,10.26-2l.32,1.64-10.25,2,1.05,5.26q-21,4.26-41.88,8.77l.29,1.31q26-5.61,52.08-10.79c.13.66.2,1,.32,1.64q-26.07,5.17-52,10.79l1.47,6.71q25.91-5.6,51.9-10.76c.12.66.19,1,.32,1.64q-26,5.16-51.87,10.76l1.4,6.38c4.12-.9,6.17-1.35,10.3-2.23l.35,1.64-10.29,2.22c.57,2.62.85,3.93,1.43,6.55,4.1-.9,6.15-1.34,10.26-2.22l.35,1.64c-4.1.88-6.16,1.32-10.26,2.22.58,2.62.86,3.92,1.43,6.54L160,271.6l.35,1.64c-4.09.87-6.13,1.32-10.22,2.21l.32,1.47,2.24,1.4c.28,1.31.43,2,.71,3.27q-25.07,5.52-50,11.45c-.32-1.3-.47-2-.78-3.25,2.55-4.06,3.83-6.09,6.41-10.14Q96.29,225.86,83.58,172.06c-4.27-2.44-6.41-3.65-10.7-6.07-.32-1.3-.47-2-.79-3.25Q125.3,150.1,178.92,139.5l6.42,32.88q-31.08,6.13-62,12.92l3.62,16.35,3.46-.76L127.55,188q31-6.75,62.13-12.85-2.88-14.88-5.77-29.77l3.36-.65c1.39,7.24,2.08,10.86,3.48,18.1,4.13-.8,6.2-1.19,10.34-2,.12.66.18,1,.31,1.65l-10.34,2c.51,2.64.76,3.95,1.27,6.58l10.3-2c.13.66.19,1,.31,1.65-4.12.77-6.18,1.17-10.3,2,.4,2,.59,3.06,1,5.1q-31.11,6.06-62.06,12.74l.32,1.48q36.06-7.8,72.29-14.69c.13.65.19,1,.31,1.64q-36.21,6.9-72.24,14.68l1.43,6.55q35.94-7.77,72-14.64c.12.66.19,1,.31,1.64q-18.22,3.44-36.39,7.12,3.18,15.6,6.34,31.19-20.93,4.31-41.81,8.88Zm19.59,9.45-3.34.72,1.85,1.31.7,3.28q-25,5.43-49.9,11.28l-.78-3.26q23.36-5.53,46.81-10.62c-.28-1.31-.43-2-.71-3.27l5-1.08Zm11.8,14.62q-24.91,5.22-49.7,11l-.38-1.64q24.81-5.75,49.73-11ZM166.85,289q-19.56,4.17-39.06,8.65c.91-.9,1.36-1.35,2.28-2.24q16.71-3.78,33.44-7.41Z"/><path d="M256.9,239.1c.31,1.79.46,2.68.76,4.47l7.18-1.21.19,1.14-7.17,1.22c.31,1.83.47,2.75.78,4.59l7.16-1.22.19,1.15-7.15,1.21c.31,1.84.47,2.75.78,4.59l7.15-1.21c.07.46.11.69.19,1.15l-7.14,1.21c.07.41.11.61.18,1l1.5,1,.39,2.29q-17.52,3-35,6.23l-.42-2.29c1.9-2.72,2.86-4.08,4.78-6.79q-6.9-37.77-13.82-75.53c-2.83-1.84-4.25-2.77-7.09-4.6l-.43-2.29q25.49-4.67,51-8.92a29.66,29.66,0,0,1,13.63.74,40,40,0,0,1,11,5.92c4.23,3,8.84,6.57,11.83,11.14l1.49-.22,1,1-1.81.27a16.76,16.76,0,0,1,1.13,2.18c.32.74.61,1.48.89,2.22l4-.59.78,1.06-4.33.65c.17.6.32,1.17.44,1.69s.22,1.07.3,1.61a2.86,2.86,0,0,1,0,.64,2.82,2.82,0,0,0,0,.64l6.09-.91.66,1.08-6.58,1c0,.78.09,1.56.17,2.33a15.2,15.2,0,0,1,0,2.34l7.78-1.15c.07.46.1.69.17,1.15l-7.89,1.17a16.82,16.82,0,0,1-.32,2.4c-.16.81-.34,1.62-.54,2.44,3.67-.56,5.51-.83,9.18-1.37l.05,1.17c-3.86.57-5.79.85-9.66,1.44a23,23,0,0,1-2.28,5.05c4.57-.7,6.86-1,11.43-1.71-.12.49-.19.73-.31,1.22-4.76.7-7.14,1.06-11.9,1.78-.4.54-.81,1.05-1.22,1.54s-.82,1-1.24,1.43l1,2c4.75-.73,7.12-1.09,11.87-1.79l-.66,1.27c-4.27.64-6.41,1-10.68,1.62l2.37,4.34,7.22-1.09.53,1.1-7.22,1.09,2.37,4.46L309,229.6l.52,1.1c-2.88.42-4.32.64-7.2,1.08l2.21,4.25,7.19-1.07.64,1.08-7.19,1.07,2.23,4.37,7.17-1.06c.21.44.32.66.52,1.09l-7.17,1.07c.94,1.74,1.4,2.61,2.34,4.36l7.15-1.06c.21.44.32.66.52,1.1L310.78,248l.5,1,2,1c.47.87.7,1.31,1.16,2.18q-17.56,2.6-35.09,5.45l-1.2-2.16c1.17-2.55,1.76-3.82,2.94-6.37-2.76-5.16-4.15-7.74-6.93-12.9C267.22,237.35,263.78,237.92,256.9,239.1Zm11,21.61-2.33.4,1.24,1,.39,2.29q-17.51,2.94-34.94,6.15c-.17-.92-.26-1.37-.42-2.29q16.37-3,32.75-5.78l-.39-2.29,3.51-.59C267.8,260,267.84,260.25,267.92,260.71Zm7.74,10.51q-17.45,2.88-34.84,6l-.21-1.15q17.41-3.13,34.86-6ZM271,266.1c-11,1.83-16.42,2.77-27.35,4.73l1.65-1.48c9.36-1.67,14-2.48,23.41-4.05Zm-26.82-73.32,2,11.46,2.39-.41L247,194.66c8.06-1.39,12.1-2.07,20.17-3.39a8.63,8.63,0,0,1,3.46,0,4.81,4.81,0,0,0-2.32-1.74,6.8,6.8,0,0,0-3.56-.25C256.49,190.66,252.38,191.36,244.16,192.78Zm10.5,60.75,2.74,1.89c-1.81-10.55-2.72-15.82-4.53-26.37,6.39-1.1,9.58-1.64,16-2.69l-1.21-2.16c-7,1.16-10.52,1.75-17.53,3ZM271.89,194a2.61,2.61,0,0,0-.29-1,3.44,3.44,0,0,0-1.22.09l-1.21.2c-7.82,1.27-11.73,1.92-19.54,3.26l.2,1.15C258.65,196.2,263.06,195.46,271.89,194ZM250,198.85c.32,1.84.47,2.75.79,4.59,6.31-1.08,9.47-1.61,15.79-2.65,3.66-.6,5.41-2.45,5.24-5.57C263.11,196.64,258.74,197.36,250,198.85ZM255.51,231l.19,1.15c6-1,8.94-1.52,14.9-2.5l-.66-1.07C264.16,229.49,261.28,230,255.51,231Zm.39,2.29.8,4.7c6.75-1.15,10.12-1.71,16.87-2.82-1-1.77-1.45-2.66-2.43-4.43C265,231.7,262,232.21,255.9,233.25Zm64.86,19.19-2.34.34,1.58.95,1.15,2.18q-17.53,2.55-35,5.36l-1.18-2.17q16.41-2.6,32.84-5c-.41-.88-.62-1.32-1-2.2l3.52-.52ZM308,247.27q-8.05-15.44-16.19-30.83a29.42,29.42,0,0,0,6.39-12.05,32.54,32.54,0,0,0,.42-12.18,23.47,23.47,0,0,0-3.64-9.45A33,33,0,0,0,287.9,175a27,27,0,0,1,8,15.26,29.66,29.66,0,0,1-.87,13.6A28.26,28.26,0,0,1,288.45,215q8.07,15.22,16.06,30.49Zm24.19,15.29q-17.48,2.46-34.93,5.18l-.65-1.07q17.46-2.73,35-5.2Zm-6.53-4.95c-11,1.57-16.47,2.39-27.43,4.09l1.22-1.36c9.38-1.45,14.08-2.15,23.47-3.51Z"/><path d="M352.68,211.66c.61,4.66.91,7,1.51,11.65l2.37-.31-1.17-9.11Q370,212,384.65,210.3c-1-8.36-1.46-12.55-2.44-20.91l2.28-.27c.59,5,.88,7.56,1.46,12.6l7.17-.82c.05.47.07.7.13,1.16l-7.17.82c.22,1.85.32,2.77.54,4.62l7.15-.82.13,1.16-7.15.81.43,3.7q-14.62,1.68-29.24,3.56l.12.92q18.17-2.33,36.36-4.37l.13,1.16q-18.19,2-36.34,4.36l.6,4.74q18.88-2.41,37.81-4.53c2.16-2.63,3.24-3.95,5.41-6.57l2.5-.27q1.56,14.46,3.13,28.91-40,4.44-79.8,10l-.33-2.3c2-2.64,3-4,5.06-6.59q-5.31-38-10.61-76l-6.88-4.91c-.13-.92-.2-1.38-.33-2.3q36.87-5.15,73.83-9.38c1,9.25,1.56,13.88,2.59,23.12q-21.51,2.47-43,5.2l1.5,11.54,2.4-.32c-.47-3.64-.7-5.46-1.17-9.11Q372.44,176.45,394,174c-.93-8.37-1.39-12.56-2.32-20.93l2.31-.25,1.4,12.72,7.15-.78.13,1.16-7.15.77.51,4.63,7.13-.78.13,1.16-7.13.77c.15,1.44.23,2.16.39,3.59q-21.54,2.41-43,5.11l.13,1q25-3.18,50.14-5.88l.13,1.15q-25.1,2.67-50.12,5.89c.23,1.84.35,2.77.59,4.61q25-3.16,50-5.87l.13,1.16c-10.11,1.08-15.16,1.65-25.26,2.83,1,8.78,1.55,13.17,2.58,22Q367.26,209.76,352.68,211.66Zm66.73,28.53-6.93.72c.15,1.39.22,2.09.37,3.47q-40,4.37-79.77,9.83c-.13-.92-.2-1.38-.33-2.3q38.76-5.32,77.62-9.6l-2.85-26.61,2.26-.24,1.35,12.73,7-.73.12,1.15-7,.74c.2,1.85.3,2.77.49,4.62l7-.73c0,.47.07.7.12,1.16l-6.95.73c.19,1.85.29,2.78.49,4.63l6.93-.73Zm1.2,11.57q-39.72,4.22-79.29,9.53l-.16-1.15q39.61-5.33,79.33-9.54ZM420,246q-37.87,4-75.63,9l1.72-1.4q36.84-4.87,73.79-8.79Z"/><path d="M450.31,201c.41,4.68.62,7,1,11.71l2.38-.21c-.33-3.67-.49-5.5-.81-9.16q14.67-1.31,29.35-2.41l-1.6-21,2.29-.18,1,12.65,7.19-.53.08,1.16-7.18.53.35,4.64,7.17-.53c0,.46.05.7.08,1.16l-7.17.53c.12,1.48.17,2.23.28,3.71q-14.67,1.09-29.32,2.38l.08.93q18.22-1.59,36.47-2.91l.08,1.16q-18.24,1.32-36.45,2.91c.17,1.9.25,2.85.41,4.75q19-1.65,37.93-3l5.66-6.35,2.5-.17,2,29Q464,234.59,424,238.55c-.1-.93-.15-1.39-.24-2.32l5.31-6.38-7.56-76.4-6.67-5.18c-.1-.92-.14-1.38-.24-2.31q37-3.66,74.08-6.41c.66,9.28,1,13.92,1.66,23.21q-21.58,1.59-43.13,3.46c.41,4.64.62,6.95,1,11.59l2.41-.21c-.32-3.67-.48-5.5-.81-9.16q21.6-1.84,43.22-3.43c-.6-8.4-.89-12.6-1.49-21l2.32-.16c.36,5.1.54,7.65.89,12.76l7.17-.49.08,1.16-7.17.49.33,4.64,7.15-.48.08,1.16-7.15.48.25,3.6q-21.6,1.56-43.17,3.39c0,.41,0,.62.09,1q25.13-2.17,50.29-3.87l.07,1.16q-25.14,1.67-50.26,3.87l.4,4.64q25.07-2.18,50.18-3.87l.07,1.16c-10.13.68-15.19,1-25.32,1.82l1.7,22Q464.93,199.68,450.31,201Zm65.48,31.18-6.95.45c.09,1.39.13,2.09.23,3.48q-40.08,2.76-80,6.63c-.09-.93-.14-1.39-.23-2.32q38.9-3.77,77.87-6.48c-.72-10.68-1.08-16-1.79-26.7l2.26-.15c.34,5.11.5,7.67.84,12.77l7-.45c0,.47,0,.7.07,1.16l-7,.45.31,4.65c2.78-.19,4.18-.28,7-.45,0,.46,0,.69.07,1.16-2.79.17-4.18.26-7,.45l.31,4.64,7-.45C515.74,231.47,515.76,231.7,515.79,232.16Zm.73,11.61Q476.7,246.4,437,250.12l-.12-1.16q39.76-3.72,79.58-6.35Zm-.37-5.8q-38,2.49-75.85,6l1.77-1.34q37-3.37,74-5.81C516.11,237.27,516.12,237.5,516.15,238Z"/><path d="M646.92,234.66c9.76-.09,14.64-.11,24.39-.09a72,72,0,0,1-12-1.75A68,68,0,0,1,647.47,229,57.84,57.84,0,0,1,636.86,223c-3.26-2.3-6-5.54-8.21-7.75s-5.15-4.55-6.8-7.09q7.56-12.81,15.27-25.54c2.1,2.44,5.88,4.73,11.3,6.92s12.09,3.27,20,3.27c8.5,0,14.27-.49,17.33-1.53s4.59-2.78,4.61-5.23q-16.93-.12-33.87-.08l-2.6-1.66q18-.1,36,.06a27.42,27.42,0,0,0-6.22-1.47,51.77,51.77,0,0,0-6.4-.46,69.46,69.46,0,0,1-12.72-1.27,74.43,74.43,0,0,1-12.75-3.55l-5.2,0L645,176l3.12,0a48,48,0,0,1-7.95-4.87,20.18,20.18,0,0,1-5.56-6.21A37.43,37.43,0,0,1,624.57,153a36,36,0,0,1-4.09-16.84,30.69,30.69,0,0,1,5-17.6,52.17,52.17,0,0,1,13.43-14A65.19,65.19,0,0,1,657,95.39a59.79,59.79,0,0,1,18.82-3.2q7.53,0,13.27.49a76.09,76.09,0,0,1,10.48,1.53,39.65,39.65,0,0,1,8.65,3,42.66,42.66,0,0,1,7.61,4.82l8.42-.83,2.64,1.74q-13,14.32-25.75,28.85a15.25,15.25,0,0,0-9.4-5.55A68.55,68.55,0,0,0,679.07,125c-8.74,0-14.82.88-18.23,2.67s-5.11,3.93-5.1,6.39a8,8,0,0,0,4.61,7.35,6.11,6.11,0,0,1-1.07-3.85,5.57,5.57,0,0,1,2.19-4.61,16.46,16.46,0,0,1,5.47-2.78,34.39,34.39,0,0,1,7.25-1.33q4-.33,7.52-.3a81,81,0,0,1,12.63,1.1,15.73,15.73,0,0,1,10.26,5.66q11.77-13.44,23.75-26.69L731,108l2.27,1.73c-3,3.28-4.51,4.92-7.5,8.2l3,.07,2.45,1.74-6.92-.17-5.82,6.58c8.5.17,12.75.28,21.24.52l-1.64,1.63c-8.42-.24-12.62-.34-21-.5l-6,6.59c8.47.15,12.71.24,21.17.45l-1.45,1.64c-8.46-.21-12.69-.3-21.16-.44l-2.15,2.48a20.9,20.9,0,0,0-3.14-2.56q-19.83-.28-39.67-.26a6.23,6.23,0,0,0-2.46,5v1.51a10.46,10.46,0,0,0,2.28.16h11.61c7.17,0,10.76.05,17.94.13l-4.41,1.63-2.46,0a66.53,66.53,0,0,1,16.34,6.46A44.73,44.73,0,0,1,717,161.84a68,68,0,0,1,6.41,6.16,34,34,0,0,1,5.79,8.69h.7l2.21,1.74-2.08-.06a39.88,39.88,0,0,1,1.91,6.75l5,.14c.39.68.59,1,1,1.7l-5.7-.15a35.66,35.66,0,0,1,.16,6.87l8.1.23.64,1.69-9-.25c-.15,1.23-.29,2.34-.43,3.34a18,18,0,0,1-.77,3.17c4.32.11,6.49.17,10.81.3,0,.67.08,1,.12,1.68-4.59-.14-6.89-.21-11.49-.32-.49,1.1-1,2.23-1.54,3.39a20.84,20.84,0,0,1-1.88,3.23c5.75.13,8.62.21,14.37.38-.16.67-.23,1-.39,1.67-6.09-.18-9.13-.26-15.22-.41a23.26,23.26,0,0,1-2.81,3.37q-1.57,1.56-3.49,3.19c7.64.16,11.46.26,19.1.48l-.9,1.65c-8-.23-12.06-.33-20.11-.49a62.08,62.08,0,0,1-10.16,6.52c10.26.16,15.4.27,25.66.55l-1.57,1.63c-10.87-.28-16.3-.4-27.18-.56a69.69,69.69,0,0,1-29.91,6.44q24.74.08,49.46.64l-2.07,1.62q-36.06-.71-72.11-.52Zm21.18-6.8a63.31,63.31,0,0,1-8.59-.65,74.49,74.49,0,0,1-9.61-2,81,81,0,0,1-9.74-3.42,61.54,61.54,0,0,1-8.92-4.66,49.25,49.25,0,0,0,18.68,10.68,69.77,69.77,0,0,0,21.57,3.61,73.4,73.4,0,0,0,18.59-2.59,70.79,70.79,0,0,0,18.47-7.66,50.25,50.25,0,0,0,14.35-12.66A29.24,29.24,0,0,0,729,191,34.76,34.76,0,0,0,726,176a48.71,48.71,0,0,0-7.48-12.32,42,42,0,0,1,5.09,10.42,37,37,0,0,1,1.71,12.52,32.82,32.82,0,0,1-4.58,15.9,43.31,43.31,0,0,1-12.07,13.17,61.23,61.23,0,0,1-18,8.9A74.53,74.53,0,0,1,668.1,227.86Zm5.36-48.74a54.39,54.39,0,0,1,8.75.71,20.93,20.93,0,0,1,7.17,2.39,11.27,11.27,0,0,0-6.38-4.73,30.78,30.78,0,0,0-9.88-1.55H670a67.09,67.09,0,0,1-17.45-2.38,52.19,52.19,0,0,1-15.81-7.14,31.75,31.75,0,0,0,9.29,6.85,50.88,50.88,0,0,0,10.44,3.8,65.34,65.34,0,0,0,9.8,1.65C669.33,179,671.73,179.12,673.46,179.12Zm-3,65.5-5.74-1.68q21.43,0,42.87.32l-6.94,1.57Q685.56,244.62,670.46,244.62Zm15.47-113a90.53,90.53,0,0,0-9.36.45,30.72,30.72,0,0,0-8.66,2q16.77,0,33.53.22a24.71,24.71,0,0,0-7.57-2.19A73.45,73.45,0,0,0,685.93,131.61Zm38.78,11.46-1.26,1.65c-7.24-.16-10.86-.23-18.1-.34l-6-1.75C709.52,142.75,714.59,142.84,724.71,143.07Z"/><path d="M782.05,206.86l-.21,4.53,7.25.35L789,212.9l-7.24-.35c-.09,1.86-.13,2.79-.22,4.65,2.89.13,4.34.2,7.23.35l-.06,1.16-7.22-.35c-.09,1.86-.13,2.79-.22,4.65,2.88.13,4.33.2,7.21.35l-.06,1.16-7.2-.35,0,1.05,1.24,1.34c-.05.93-.07,1.39-.11,2.32q-17.7-.84-35.4-1.41l.08-2.33,6.11-5.61q1.33-38.37,2.68-76.73l-5.91-6,.07-2.32q25.8.89,51.57,2.2a29.48,29.48,0,0,1,13.12,3.65,39.63,39.63,0,0,1,9.49,8.15c3.48,3.82,7.21,8.31,9.15,13.41l1.49.1.73,1.21-1.81-.12a19.49,19.49,0,0,1,.63,2.38c.15.78.28,1.57.39,2.35l4,.28.52,1.2-4.35-.3c0,.63.06,1.21.06,1.75s0,1.09-.05,1.63a3.06,3.06,0,0,1-.1.64,3,3,0,0,0-.1.63l6.13.42c.16.48.25.72.41,1.2l-6.62-.46c-.13.77-.24,1.54-.34,2.31a15.32,15.32,0,0,1-.45,2.3l7.82.54c0,.46,0,.7-.08,1.16l-7.94-.54a18.19,18.19,0,0,1-.82,2.27c-.33.76-.69,1.51-1.06,2.26l9.25.64-.2,1.15c-3.89-.28-5.83-.41-9.72-.67a22.3,22.3,0,0,1-3.31,4.45c4.61.3,6.91.45,11.51.78-.23.45-.34.67-.56,1.12-4.79-.33-7.19-.49-12-.8a24.8,24.8,0,0,1-6.4,4.26c6.36.39,9.54.6,15.9,1l-.91,1.1c-7-.48-10.54-.71-17.57-1.14a47.06,47.06,0,0,1-18.47,2.32c-6.73-.36-10.1-.53-16.84-.84l-.06,1.28q24.42,1.15,48.8,2.76l-1.74,1.05q-23.55-1.56-47.11-2.65c-.09,1.91-.13,2.86-.22,4.76q18.69.88,37.38,2c-3.08.27-4.62.41-7.69.7Q796.94,207.55,782.05,206.86Zm6.12,23.47-2.36-.12,1,1.22-.11,2.32q-17.66-.87-35.32-1.48c0-.93,0-1.39.08-2.32q16.56.62,33.11,1.37c0-.93.07-1.4.11-2.33l3.54.18Zm5.28,11.91q-17.6-.92-35.2-1.57l0-1.16q17.61.66,35.21,1.57Zm-3.46-6c-11-.56-16.58-.8-27.64-1.24l1.93-1.08c9.46.37,14.2.59,23.65,1.05Zm-13.2-15.77,2.26,2.44c.49-10.74.74-16.11,1.23-26.85,7.75.36,11.62.55,19.36,1a39.19,39.19,0,0,0,13.94-1.47A27.26,27.26,0,0,0,823.71,190a25.21,25.21,0,0,0,6.36-8.82,33.44,33.44,0,0,0,2.68-11.2,23.48,23.48,0,0,0-1.53-10,33.1,33.1,0,0,0-5.28-9.08,27,27,0,0,1,4.54,16.61,30.59,30.59,0,0,1-3,11.7,26.92,26.92,0,0,1-16.65,14.13,35.29,35.29,0,0,1-12.38,1.41c-8.19-.44-12.28-.64-20.46-1Zm2.76-61.59c-.21,4.65-.31,7-.52,11.62l2.41.11c.17-3.72.26-5.58.43-9.29,8.15.37,12.22.57,20.36,1a8.42,8.42,0,0,1,3.37.77,4.79,4.79,0,0,0-1.89-2.2,6.66,6.66,0,0,0-3.41-1C792,159.46,787.85,159.25,779.55,158.88Zm26.73,7.17a2.68,2.68,0,0,0-.06-1.07,3.2,3.2,0,0,0-1.21-.17l-1.22-.06c-7.89-.44-11.83-.64-19.73-1l0,1.16C792.92,165.32,797.38,165.55,806.28,166.05Zm-22.32,0c-.09,1.86-.13,2.79-.22,4.65,6.38.3,9.56.45,15.94.79,3.7.2,5.8-1.23,6.3-4.31C797.17,166.71,792.77,166.48,784,166.07Z"/><path d="M875.06,200c-.39,4.68-.59,7-1,11.71l2.38.2c.31-3.66.47-5.49.78-9.16q14.68,1.24,29.34,2.69c.82-8.38,1.23-12.57,2-21l2.29.23-1.25,12.62,7.18.71-.12,1.16-7.17-.72c-.18,1.86-.27,2.78-.46,4.63l7.16.72-.12,1.16-7.15-.72c-.15,1.48-.22,2.23-.37,3.71q-14.64-1.45-29.3-2.71l-.08.92q18.22,1.57,36.43,3.43c0,.46-.07.69-.11,1.16q-18.19-1.86-36.42-3.43c-.16,1.9-.25,2.85-.41,4.75q19,1.65,37.89,3.58c2.66-2.12,4-3.17,6.67-5.28l2.5.27-3.06,28.92q-40-4.12-80-7.12c.07-.93.1-1.4.17-2.33,2.52-2.15,3.79-3.22,6.33-5.36q2.87-38.28,5.72-76.57L849.22,142c.07-.92.1-1.39.17-2.32q37.08,2.78,74.07,6.46c-.94,9.26-1.42,13.89-2.36,23.15q-21.54-2.16-43.1-4c-.39,4.64-.58,7-1,11.6l2.42.2c.31-3.66.47-5.49.78-9.16q21.6,1.91,43.17,4.08c.86-8.38,1.29-12.57,2.16-21l2.31.24c-.53,5.09-.79,7.64-1.32,12.73l7.15.75c-.05.47-.07.7-.12,1.16l-7.15-.75c-.19,1.85-.29,2.77-.48,4.63,2.85.29,4.28.44,7.13.75l-.12,1.16-7.13-.76c-.15,1.44-.23,2.15-.38,3.59q-21.56-2.19-43.12-4.11l-.09,1q25.13,2.19,50.22,4.86c-.05.46-.07.7-.12,1.16q-25.08-2.7-50.2-4.86l-.4,4.64q25.07,2.17,50.1,4.85l-.12,1.15c-10.11-1.08-15.16-1.59-25.27-2.57-.85,8.8-1.28,13.2-2.13,22Q889.7,201.25,875.06,200Zm59.16,42-6.93-.75-.38,3.47q-39.95-4.2-80-7.28c.07-.93.1-1.39.17-2.32q39,3,77.83,7c1.14-10.64,1.7-16,2.84-26.6l2.26.24c-.55,5.09-.83,7.63-1.37,12.72l7,.76c0,.47-.07.7-.13,1.16l-7-.76-.5,4.63,7,.75c-.05.47-.07.7-.13,1.16l-6.94-.76-.5,4.63,6.93.76C934.29,241.33,934.27,241.56,934.22,242Zm-1.28,11.56q-39.69-4.28-79.46-7.46l.08-1.16q39.83,3.18,79.5,7.47C933,252.89,933,253.12,932.94,253.58Zm.64-5.78q-37.86-4.08-75.78-7.17l2-1q37,3,73.93,7Z"/><path d="M972.73,210.25c-.59,4.66-.88,7-1.46,11.66l2.37.3,1.15-9.12q14.63,1.83,29.23,3.86c1.15-8.34,1.73-12.51,2.88-20.86l2.28.32L1007.43,209l7.15,1c-.06.46-.1.69-.16,1.15l-7.15-1c-.25,1.84-.38,2.76-.64,4.61l7.13,1-.16,1.15-7.13-1c-.21,1.47-.31,2.21-.51,3.69q-14.6-2-29.21-3.89l-.12.92q18.18,2.31,36.31,4.89l-.16,1.15q-18.13-2.58-36.29-4.88l-.6,4.73q18.9,2.4,37.76,5.09l6.88-5,2.49.36q-2.12,14.4-4.21,28.78Q979,246,939,241.39c.11-.92.16-1.39.26-2.31,2.61-2.05,3.92-3.07,6.55-5.11q4.38-38.13,8.77-76.27l-5.42-6.48c.1-.92.15-1.38.26-2.31q37,4.26,73.83,9.43c-1.32,9.21-2,13.82-3.29,23q-21.45-3-43-5.75c-.57,4.62-.86,6.93-1.44,11.54l2.4.3,1.15-9.11q21.54,2.76,43,5.8l3-20.84,2.31.33c-.74,5.07-1.1,7.6-1.84,12.67l7.13,1c-.07.46-.1.69-.17,1.15l-7.12-1c-.27,1.84-.4,2.76-.67,4.6l7.11,1c-.07.46-.1.69-.17,1.15l-7.11-1c-.2,1.43-.31,2.14-.51,3.57q-21.48-3.06-43-5.84l-.13,1q25.05,3.2,50,6.88c-.07.46-.1.69-.17,1.15q-25-3.7-50-6.87c-.23,1.84-.35,2.77-.58,4.61q25,3.19,49.93,6.86c-.07.46-.1.69-.17,1.15-10.07-1.49-15.1-2.2-25.18-3.59-1.2,8.76-1.8,13.14-3,21.9Q987.32,212.06,972.73,210.25Zm57.49,44.35-6.9-1c-.21,1.38-.31,2.07-.51,3.45q-39.79-5.79-79.72-10.48c.11-.92.16-1.38.27-2.31q38.86,4.56,77.57,10.16l3.9-26.47,2.25.34c-.76,5.06-1.13,7.59-1.88,12.65l6.94,1c-.07.46-.11.69-.18,1.15l-6.93-1c-.28,1.84-.41,2.77-.69,4.61l6.93,1c-.07.46-.11.69-.18,1.15l-6.92-1c-.27,1.84-.41,2.76-.68,4.6l6.91,1C1030.33,253.91,1030.29,254.14,1030.22,254.6Zm-1.74,11.5q-39.53-5.88-79.19-10.65c.06-.46.08-.69.14-1.15q39.69,4.77,79.22,10.65Zm.87-5.75q-37.69-5.61-75.51-10.22l2-.93q36.9,4.53,73.67,10C1029.45,259.66,1029.42,259.89,1029.35,260.35Z"/><path d="M1103.68,240.86c3.28,5.8,4.91,8.7,8.14,14.5l4.69.88,1,1.36-4.91-.92,2.28,4a8.65,8.65,0,0,0-.87.43,7.64,7.64,0,0,1-.86.43l7.12,1.34,1,1.36-9.8-1.84c-1.4.61-2.8,1.18-4.18,1.71s-2.8,1-4.25,1.47c8.44,1.54,12.66,2.33,21.09,3.95l-1.73.85c-8.76-1.67-13.13-2.49-21.9-4.08a39.73,39.73,0,0,1-17.57.77,36,36,0,0,1-8.79-2.93,63.54,63.54,0,0,1-9.52-5.5,51.44,51.44,0,0,1-8.52-7.4,30.45,30.45,0,0,1-5.77-8.71,48.41,48.41,0,0,1-7.27-16,45.9,45.9,0,0,1,17.75-48.73,47.68,47.68,0,0,1,16.35-7.43,45.28,45.28,0,0,1,18.73-.55,46.63,46.63,0,0,1,13.57,4.51,45.54,45.54,0,0,1,11.15,8c-7,6.38-10.49,9.58-17.42,16a21.32,21.32,0,0,0-11.26-5.64,20.66,20.66,0,0,0-8.9.37,22.5,22.5,0,0,0-7.85,3.82,23.82,23.82,0,0,0-5.94,6.56,23.22,23.22,0,0,0-3.19,8.62,23.45,23.45,0,0,0,.16,8.69,24.24,24.24,0,0,0,3.1,7.76,45.87,45.87,0,0,1-1.73-6.83,19.86,19.86,0,0,1,.1-6.88,24.11,24.11,0,0,1,3.06-8.22,25.29,25.29,0,0,1,5.84-6.64,22.56,22.56,0,0,1,7.83-4.05,20.05,20.05,0,0,1,9.15-.43,22.39,22.39,0,0,1,11.24,5.64c6.68-6.18,10-9.26,16.81-15.4l2.55,2.37-4.17,3.72,4,.73,2.67,1.69-7.69-1.43-4.32,3.94c5.09.93,7.63,1.4,12.71,2.35l-1.17,1c-5-.94-7.55-1.4-12.59-2.32l-4.3,3.95c5.07.92,7.61,1.38,12.68,2.32l-1.17,1c-5-.93-7.53-1.39-12.56-2.29l-1.48,1.38c-.42-.39-.85-.76-1.28-1.11s-.87-.69-1.31-1c-7.08-1.27-10.63-1.89-17.72-3.1a24.47,24.47,0,0,0-7.12,3.51q18.61,3.14,37.16,6.55l-1,1q-18.67-3.44-37.39-6.57a18.87,18.87,0,0,0-2.1,1.89,19.59,19.59,0,0,0-1.77,2.18c5.11.85,7.66,1.28,12.77,2.16l-1.63.9c-4.77-.81-7.16-1.22-11.93-2a26.07,26.07,0,0,0-2.19,4.35c3.86.64,5.79,1,9.64,1.62l-.9,1c-3.67-.63-5.5-.93-9.17-1.54-.21.75-.43,1.5-.68,2.25a14.89,14.89,0,0,0-.55,2.26l7.72,1.29-.55,1.09-7.36-1.23a16.78,16.78,0,0,0,.19,4.75l5.69.95-.2,1.15-5.33-.89a38.16,38.16,0,0,0,1,4.88l3.91.65c.06.49.09.73.16,1.21l-3.08-.51a22.8,22.8,0,0,0,5.45,4.45,20.92,20.92,0,0,0,14,2.47,23.53,23.53,0,0,0,6.53-2.21c4.74,8.12,7.09,12.19,11.73,20.33a51,51,0,0,1-13.56,4.87,43.1,43.1,0,0,1-15.74-.18,43.81,43.81,0,0,1-16.49-6.32,47.59,47.59,0,0,1-12.54-11.7,33.44,33.44,0,0,0,6.9,8.71,48.58,48.58,0,0,0,8.48,6.17,49.12,49.12,0,0,0,8.64,3.94,51.44,51.44,0,0,0,7.41,2,37.81,37.81,0,0,0,15.75-.28,86.55,86.55,0,0,0,14.25-5c-4-7-6-10.49-10.14-17.47ZM1114,273.52l-2.54.71q-21.56-4-43.16-7.66l-1.9-1.5Q1090.22,269.08,1114,273.52Zm-18.09-75a20.83,20.83,0,0,0-6.13-.24c4.6.79,6.9,1.19,11.5,2A18.43,18.43,0,0,0,1095.9,198.48Zm1.24,77.85h-6.59l-6.15-1.08-5.61-2.16C1086.13,274.35,1089.8,275,1097.14,276.33Z"/><path d="M1228.39,287.14l-7.07-1.67c-.09.41-.14.61-.24,1l1,1.54c-.21.91-.31,1.36-.53,2.27q-17.34-4.08-34.75-7.89l.5-2.28,7.07-4.39,3-13.52q-15.25-3.39-30.57-6.58c-.37,1.78-.55,2.67-.92,4.44l7.13,1.5-.24,1.14-7.13-1.5-.95,4.56,7.12,1.49c-.1.46-.15.69-.24,1.14l-7.12-1.49-1,4.55,7.1,1.49c-.09.46-.14.69-.24,1.14l-7.1-1.49c-.08.41-.12.62-.21,1,.41.6.61.91,1,1.52-.19.91-.29,1.36-.48,2.27q-17.41-3.65-34.88-7c.17-.91.26-1.37.44-2.28,2.77-1.83,4.16-2.75,6.94-4.57q7.41-37.67,14.8-75.34c-2-2.76-2.95-4.13-4.92-6.88.18-.92.27-1.38.44-2.29q18.15,3.53,36.23,7.3c-.19.91-.28,1.37-.47,2.28l-7.21,4.44c-2.16,10.48-3.24,15.72-5.41,26.2l2.38.5c2-9.53,3-14.29,4.94-23.81l7.23-4.55,2.28.48c-.19.91-.28,1.37-.48,2.28l-5.76,3.54c4.8,1,7.2,1.51,12,2.54,0,.47-.07.7-.12,1.17-5.33-1.15-8-1.71-13.32-2.82l-1,4.55c4.51.94,6.76,1.42,11.26,2.38l-1.32.91c-4.07-.87-6.1-1.3-10.18-2.15l-1,4.56,7.29,1.53c-.09.46-.14.68-.24,1.14l-7.28-1.53-1,4.55,7.27,1.53c-.1.46-.15.68-.24,1.14l-7.27-1.53-.95,4.56q15.52,3.22,31,6.67c2.32-10.44,3.47-15.67,5.79-26.12-1.89-2.8-2.84-4.2-4.75-7l.5-2.27q18.07,4,36.08,8.19c-.21.91-.32,1.36-.53,2.27-2.93,1.7-4.4,2.55-7.32,4.26L1217.59,281l1.79,2.8q8.71-37.32,17.42-74.65c2.93-1.76,4.4-2.63,7.35-4.37l2.27.53c-.21.91-.32,1.36-.53,2.27L1240,211c4.79,1.12,7.18,1.69,12,2.84-.07.46-.1.69-.16,1.16-5.3-1.28-7.95-1.91-13.26-3.15-.42,1.81-.63,2.72-1.06,4.53,4.49,1.05,6.73,1.58,11.21,2.65l-1.34.88c-4.05-1-6.08-1.45-10.13-2.4-.43,1.82-.64,2.72-1.07,4.53l7.26,1.72-.27,1.13-7.25-1.71c-.43,1.81-.64,2.71-1.06,4.53l7.24,1.7-.27,1.14-7.24-1.71c-.42,1.81-.64,2.72-1.06,4.53l7.22,1.7c-.1.46-.16.68-.26,1.14l-7.23-1.71c-.42,1.81-.63,2.72-1.06,4.53l7.21,1.7c-.11.46-.16.68-.27,1.13l-7.2-1.69c-.43,1.81-.64,2.71-1.06,4.53l7.19,1.69c-.11.45-.16.68-.27,1.13l-7.19-1.69c-.42,1.81-.64,2.72-1.06,4.53l7.17,1.69c-.11.45-.16.68-.27,1.13l-7.17-1.69c-.42,1.81-.63,2.72-1.06,4.53l7.16,1.69c-.11.45-.16.68-.27,1.13l-7.15-1.69-1.07,4.54c2.86.66,4.29,1,7.14,1.68-.1.45-.16.68-.26,1.13l-7.14-1.68c-.44,1.86-.65,2.78-1.09,4.64l7.12,1.68c-.1.45-.16.68-.26,1.13l-7.12-1.68c-.42,1.77-.63,2.65-1,4.42l7.11,1.68c-.11.45-.16.68-.27,1.13l-7.1-1.68c-.43,1.82-.64,2.72-1.07,4.53l7.09,1.68c-.1.45-.16.68-.27,1.13l-7.08-1.67c-.43,1.81-.64,2.72-1.06,4.53,2.83.66,4.24,1,7.07,1.67C1228.55,286.46,1228.5,286.68,1228.39,287.14Zm-59.25-7.35-2.32-.49.8,1.36-.48,2.28q-17.39-3.68-34.81-7.09l.45-2.28q16.34,3.24,32.64,6.63l.47-2.28,3.49.73C1169.28,279.11,1169.23,279.34,1169.14,279.79Zm3.36,12.61q-17.31-3.7-34.67-7.16c.09-.46.13-.69.22-1.14q17.37,3.45,34.7,7.17Zm-2.48-6.48c-10.89-2.31-16.33-3.43-27.23-5.62l2.08-.77c9.33,1.88,14,2.84,23.3,4.81Zm-10.61-17.67,1.86,2.76c2.17-10.48,3.26-15.72,5.44-26.2q16.49,3.47,32.93,7.08l.5-2.27q-17.62-3.92-35.32-7.57C1162.66,252.53,1161.58,257.77,1159.41,268.25Zm9.06-20.69c-.1.45-.14.68-.24,1.14q15.35,3.18,30.65,6.59c.1-.45.16-.68.26-1.13Q1183.83,250.76,1168.47,247.56ZM1167,254.5q15.32,3.19,30.58,6.59c.41-1.87.62-2.8,1-4.66q-15.29-3.41-30.64-6.6C1167.6,251.7,1167.41,252.64,1167,254.5Zm60,38.3-2.32-.55.78,1.38c-.22.9-.32,1.36-.54,2.26q-17.31-4.09-34.67-7.94l.5-2.28q16.28,3.65,32.51,7.44c.21-.91.32-1.36.54-2.27l3.46.82C1227.21,292.12,1227.15,292.34,1227.05,292.8Zm3.06,12.69q-17.23-4.14-34.54-8c.1-.46.16-.69.26-1.14q17.3,3.89,34.55,8Zm-2.33-6.54c-10.84-2.58-16.26-3.84-27.12-6.3l2.11-.72c9.29,2.11,13.93,3.19,23.2,5.39Z"/><path d="M744.48,1039c-3.37,14.13-12.78,25.41-20.73,39.21,13.35-5,22.94-12.77,32.41-20.62,6.14-5.1,11.8-10.77,17.74-16.12,4.94-4.46,9.58-8.94,9.68-16.39a8.89,8.89,0,0,1,2.58-5.63c9.18-8.9,18.56-17.58,27.88-26.34.55.51,1.1,1,1.66,1.52a7.93,7.93,0,0,1-1.09,2.2c-5.52,5.47-7.31,10.85-1.26,17.47,3.75,4.1,3.26,9.39,0,13.73-11.34,15-22.64,30-34.45,44.67-12.73,15.74-25.86,31.16-39.18,46.41a17.74,17.74,0,0,1-9.88,5.55c-29.78,4.43-59.66,8.2-89.43,12.66-6.08.91-11.32.82-17-1.88-8.71-4.16-17.58-4.58-27.67-4.16-13.73.57-28.17-3.31-37.93-16.09q-32.76-42.88-66.31-85.16c-8-10.07-15-20-17.09-33.38-1.21-7.61-6.11-14.68-9.62-21.86a5,5,0,0,0-3.93-2c-12,.64-21-5.53-30-12.28-6.75-5.08-13.55-10.36-21.06-14-5.25-2.57-11.74-2.6-15.49-3.34-5-3.73-8.27-7.14-12.24-8.84-6.77-2.88-14-4.69-20.78-8.65l13.9-2.52c-2.18-6.35-3.9-12.08-6.11-17.6-1.86-4.64-5.49-5.8-9.71-3.06-3.49,2.27-6.63,5.06-10.36,8V902.9L333.53,902l-.3-1.36,8.9-2.95L337.76,892l6.34-4.32c-15.14-11.55-32.25-20.18-40.52-39,5,1.33,9.52,2.92,14.15,3.62,3.58.55,7.33,0,11-.09-.48-3.82-.12-8-1.63-11.38-2.66-6-6.44-11.45-9.78-17.12-1.4-2.4-2.85-4.77-4.63-7.74l6.35-1.18c.26-.7.51-1.41.77-2.11-3.67-2-7.16-4.51-11.05-5.89-12.54-4.45-23.36-10.4-25.55-25.23-.16-1.09-.16-2.22-.25-3.59l16.11,5.76c.21-12.85-4.54-25.6,6.58-35.61,3.07,12.94,3.11,13,10,15.94L327,757l-7.64-4.48,4.6-4.2L309.62,728l1.3-1.28,13,9.56,1.18-.72c-.88-2.17-1.77-4.34-3.16-7.77,6.2-2.31,12.54-4.47,18.66-7.12a6,6,0,0,0,3-4.48c0-3.43-.87-6.87-1.46-10.77l4.51,1c-1.38-5.51-2.71-10.81-4-16.05,20.39-6,20.39-6,30.5-23.53-8.55-6.24-15.25,2.15-23.4,2.87l22.88-33.24H354.33l4.46-8.12L358,627l-12.42,6.47c-3.68-4.47-9.4-8.8-3.49-16.72l-8.56-4.56,10.93-16.65L343,593.12l6.12-8L323.85,578l22-11.31-.53-2.16L328.5,560l18.87-5-.13-1.74-15.53-6.15.4-1.36,7.93-.49-2.42-5.25,21.94-11-9-10.26,17.42,4.9c.34-.85.69-1.7,1-2.54l-5.27-2.84c5.51-5.75,11.56-11.64,17-18.06,1.12-1.33.82-5.15-.3-6.86-3.84-5.89-8.36-11.33-12.56-17a48.79,48.79,0,0,1-6.7-11.16l11.78,8.1.94-.85-3.38-5.92,6.65-4.74-8.7-13.41c11.59,3.5,21.07,13.28,32.29,2.6l-11-8.69c10.63.05,17.59-2.68,18.09-15.2-1.95-4.47-8.17.53-14.45-.66,7-5.08,10.18-13.31,20.35-12.65l-5.81-8,11.94,4.55,1.58-1.38c-1.5-3.89-3-7.79-4.48-11.66l15.88-5.73c-9.33-9.81,1.64-12.67,5.1-20.27.67,10.86,5,8.84,11.33,6.86,8.66-2.71,18-3.24,26.75-4.65l-7.56-3.12,23.52-9.87c4.42,7.52,14,3.37,20.59,7.72.52-2,.85-3.25,1.18-4.5.59.09,1.28,0,1.39.22,4.56,8.71,12.89,11,21.55,13,13.76,3.09,27.46,6.43,41.21,9.55a9.82,9.82,0,0,0,5.48,0c13.63-5.55,27.23-3.55,40.91-.36a79.52,79.52,0,0,0,8.06,1c-.38-4.29-.7-7.79-1.16-13l18.43,21.49c2.59-4.81,4.59-8.54,7-13l10.27,11.94,8.36-5.86-1.5-7.94,1-.44c2.91,3.55,6.11,6.89,8.65,10.69,2.86,4.29,4.93,8.93,11.66,7.44,1-.23,3.56,2.9,4.14,4.85,1.16,3.91,3.61,4.55,7.19,5.28,4.92,1,9.59,3.29,14.34,5.09,1.26.48,2.69,2,3.6,1.7,7.58-2.46,11.58,2.63,15.26,7.43,5.06,6.58,10.23,9.47,19.49,8.58,20.62-2,40.48,4.07,60.4,9,25.14,6.21,43.2,23.3,62.27,38.86,3.92,3.21,6.24,8.32,9.52,12.37,1.21,1.49,2.9,3.1,4.64,3.52,2.85.67,5.93.42,9.62.59l-4,8.18c7.24,6,14.41,12.74,22.43,18.23,2.53,1.73,7.35.48,11.06.07,6.52-.72,13-1.83,20.65-3-2.65,4.72-5,8.81-7.69,13.66l7.63,3.48-1.54.77c1.51,3,2.31,6.85,4.67,8.88,8.77,7.55,15.39,16,18.53,27.57,3.29,12.12,9.61,23.48,12.37,35.68a68.2,68.2,0,0,1-5.45,46.68c-5.52,11.08-8.91,23.25-12.84,35.07-1.22,3.66-1.1,7.75-1.72,12.74h16.54c-7.74,10.85-17.94,16.71-29.23,21.19.24.79.49,1.58.74,2.38l43.21-4.74C982,735,967.24,748.82,957.3,769.1h22l-17,26.33L964,797l13.19-8.14A131.75,131.75,0,0,1,965,829.51c-3.63,7.64-8.18,14.84-12,22.38-1.66,3.23-2.6,6.82-4.4,11.69l12.4-.8c-1.74,11.86-6.88,21.35-17.33,27.55-8.69,5.16-10.4,8.95-6.75,18.7,1.5,4,.2,6-2.29,8.44-18.67,18.18-41,30.46-65.5,41.29-1-1.32-1.91-2.65-2.89-4-.82-1.11-1.66-2.21-2.91-3.87-4.82,10.66-1.39,21.34-1.42,32.47-6.84-1.41-13.4-4.41-19.36-3.5-5.71.88-10.79,5.83-17,9.51-.22-1.8-1.35-5.07-.83-8,3.88-22,8-43.88,12.23-65.78.67-3.51,2.05-6.89,3.44-11.42,8.65,7.45,14.23,2.73,19.85-2.44,9.75-9,14.55-20.69,17.83-33.08.68-2.58-.5-5.65-1.72-8.67-3.64,9.61-6.77,21.42-18.69,19.76-12.51-1.73-15.11-7.62-11.9-17.41,5,10.16,12.63,10.65,20.53,5.84,3.43-2.08,1.27-14.79-2.33-18.32l-12.77,10c-3.5-8.07.23-13.14,3.52-17.55,6.29-8.45,2.42-16.69.48-25-.34-1.43-3.06-2.3-5-3.69-1.32,9.69-1.64,18.66-3.94,27.09s-6.57,16.2-10,24.27l-3.13-.8c.5-6.32.67-12.68,1.58-18.94,2.33-16.07,4.92-32.1,7.58-48.11.53-3.21,1.07-6.86,2.91-9.34,10.52-14.15,11.52-30.63,11.53-47.11,0-18.36-1-36.73-1.89-55.08-.13-2.61-2.21-5.12-3.45-7.84,7.41-5.47,8.68-10.26,6.57-20.54A21.26,21.26,0,0,1,859.16,646c4.26-10.87,9.65-21.31,13.53-32.3,1.44-4.09.59-9.39-.43-13.86-7.07-31-23.91-55.61-49.14-75-12.1-9.3-22.85-20.34-34.42-30.34a59.24,59.24,0,0,0-12.13-8.24c-9.65-4.81-9.67-4.5-17.12,3.67a6.35,6.35,0,0,1-5.47,1.49c-18.39-6.24-36.47-3.67-54.87.44a124.83,124.83,0,0,1-30.76,2.54c-8.78-.28-16.78.3-24.25,5.16-3.81,2.48-7.3,2.93-9.82-2.2-.59-1.19-3.58-2.3-4.92-1.84-13.67,4.68-26.93,11-40.89,14.37-40.21,9.79-80.58,19-121.11,27.35-19.43,4-28.08,17.91-34.89,33.61-8.79,20.23-8,41.32-2.23,62.33.81,3,1.26,6.06,2.52,8.8,10,21.9,9.28,44.47,3.55,67-5.13,20.23-3.63,39.66,1.73,59.73,8.67,32.44,16.22,65.23,23,98.12,5.58,26.83,21.13,46.74,40.49,64.58,2.6,2.4,5.28,4.69,8,7,4.06,3.48,4.88,7.71,5.08,13.1.56,15.08,2.79,29.84,16.29,39.88,9.15,6.81,15.3,15,13.45,27.58-.45,3.1,1.21,7,3,9.86,8,12.48,17.61,23.15,32.82,27.33,5.37,1.47,10.46,4.28,15.36,7,6.08,3.42,12.12,4,18.13.65,7.64-4.31,15.17-4.31,23-.79,31.51,14.19,60,7.36,86.67-12.41,6.17-4.56,12.54-8.84,18.82-13.25Z"/><path d="M566.89,882.44c.21-11.23,7-16.79,11.87-23.67s7.92-14.66,11.77-22c8.62,3.74,14.32.28,21.5-12.81,2.52,8.65,2.16,23-1,26.89-3.39-2.35-6.82-4.75-10.27-7.11s-6.85-2.24-8.2,1.68a217.46,217.46,0,0,0-6.6,24.24c-.24,1.07,2.56,3.63,4.34,4.15a84.72,84.72,0,0,0,15.8,3.23c1.78.17,4.12-1.84,5.6-3.41s2.47-4.06,4.67-6.49c2.75,12.15,12,14.75,21.6,16.82,9.28,2,18.56,3.52,27.54-1.35a7.31,7.31,0,0,1,4-1.15c8.15,1.09,14.56-1.85,19.48-8.61l1.53.93c-.74,3-.85,6.31-2.34,8.84-5,8.49-3.66,16.28,2,23.65,3.27,4.28,7,8.24,10.59,12.23,2.84,3.11,5.57,6.59,10.6,3.09.89-.61,3.37.17,4.56,1.05,8.42,6.24,15.86,13.12,15.65,24.93-.08,4.67,1.17,9.42.71,14a18.19,18.19,0,0,1-4.12,9.74c-.87,1-5.38-.63-7.85-1.83-9.23-4.52-18.67-7.29-29.17-6.7-6.25.35-12.58-.91-18.89-1.14-7.44-.28-14.9-.58-22.32-.23-9.62.45-19.26,1.18-28.79,2.51-4.72.66-9.37,2.62-13.74,4.66-1.38.64-2.42,3.51-2.3,5.27.07,1.06,2.55,2.48,4.15,2.84,7.07,1.59,13.89,3.07,21.32-.09,9.31-4,24.46.88,30.72,8.9,1.32,1.7,2.45,5.91,1.82,6.36-2.38,1.7-6.22,4-8.28,3.08-10.95-4.64-21-1.5-31,2.47-7.91,3.13-14.71.38-21.3-3.61a20.14,20.14,0,0,1-4.91-4c-10.84-12.87-24.55-10.89-38.24-7-8.94,2.55-17.79-3-15.73-12,2.51-11,7.18-21.6,11.5-32.13,1.72-4.19,5.7-5.52,10.08-3.12,4.89,2.68,7.87,1.26,9.68-3.91,1.34-3.81,2.49-7.68,8.43-4.81,3.19,1.53,10.24-8.13,9.78-14.24a101.17,101.17,0,0,0-3.51-17.8c-1-3.83-3.06-7.38-4.35-11.16-3-8.81-7.13-10-14.38-4C570.17,880.16,569.39,880.65,566.89,882.44Z"/><path d="M489.67,768.45c-2.26.58-4.58.71-6.41,1.74-7.21,4-9.75,3.78-15-2.5a50.22,50.22,0,0,1-3.46-5.32c13-12,18.17-31.85,40.17-34.41-5.87-6.65-11-6.52-15.9-3.56-4.59,2.78-8.29,7-12.89,9.77-2.78,1.66-7.47,3.33-9.67,2.09-4.42-2.49-6.93-7.78-4.16-12.77,2.91-5.25,6.37-11,11.12-14.26,9.43-6.52,19.67-11.44,32-11.32,24,.22,48-.56,72.05-.87,19-.25,32.34,13.38,31.81,32.26-.1,3.22.71,6.48,1.23,9.69.22,1.38,1.26,2.76,1.12,4-2.18,21,6.17,40.86,6,61.59a20,20,0,0,1-1.5,2.55l-11.85-35.84c-9,1.68-8.65,1.64-9.77-7.29-.45-3.61-2.87-7-5.55-11.16C583.41,764.71,574.23,766,561.86,764l12.7-7.92-.71-2.07-14.54,5c1.14-6,7.92-12.53-1.32-14.87-3.82,5.53-6.63,11.47-11.15,15.44-2.88,2.53-8.47,3.38-12.56,2.84-10.47-1.37-15.64-9.58-15.33-22.39-.41-.06-1-.31-1.22-.14-14.64,9.5-14.77,10.56-3.05,23.14.9,1,1.67,2,3.62,4.44L503.69,763c-.16.92-.31,1.84-.47,2.76,16.65,10.66,34,13.3,52.57,2.48l1.5,2.2c-1.35,2-2.22,4.93-4.12,6-15.42,8.57-31.88,12.48-49.57,9.81a9.09,9.09,0,0,1-2.76-.55c-3.5-1.85-7.9-3.1-10.06-6C489,777.3,490,772.91,489.67,768.45Z"/><path d="M777.34,769.49c-8.15,6.36-12.81,21-28.91,13.56l19.74-15.16-1.29-2.08-8.45,1.62C755.94,762.36,761,755,753.31,752c-6.19,13.1-12.71,17.34-22.18,14.66-9.3-2.64-13.07-9.87-11.66-23.35-10.57,4.18-16.34,16.91-30.07,13.78.17.73.35,1.47.52,2.2l7.71,4.91c-.33.81-.66,1.61-1,2.42-4.32-1.19-8.77-2.07-12.87-3.78-.92-.38-1.15-3.75-.76-5.55.33-1.57,2-2.86,3.71-5.17-9.53.39-13.4,5.11-13.87,13.54l-1.7-.23a34.2,34.2,0,0,1-2.63-4.91c-1.2-3.43-2.14-6.33-6.89-6.72-1.64-.13-4-4.29-4.18-6.71-.35-6.46.29-13,.67-19.47.46-7.94-2.48-11.18-10.49-11.28-5.69-.08-14.51-6.7-16.67-12.63a44.51,44.51,0,0,1-1.67-6.11,25.34,25.34,0,0,1-.6-9.12c1.81,4.69,3.18,9.62,5.6,14,1.24,2.22,4.47,4.83,6.56,4.64,1.87-.18,3.91-3.74,4.94-6.2s.94-5.47,1.68-10.57c2.21,4,3.44,6.31,4.69,8.57,3.34,6,9.65,6.19,13.21.38,5.16-8.43,11.42-11,20.72-8.09a84.81,84.81,0,0,1,13.09,5.17c7.88,4,16,5.65,24.88,6.53,10.2,1,20,5.6,30.13,8.12,7.24,1.8,14.67,2.92,22.07,4,5.1.77,10.46.35,15.36,1.7,3.83,1.06,7.39,3.71,10.62,6.23a58.44,58.44,0,0,1,9,8.83c1.5,1.8,3.48,4.84,2.89,6.47-2.37,6.61.64,11.92,3,17.46,1.84,4.32,2.19,6.82-3.78,8.57-4.55,1.34-10.76,2.1-12.52,8.73-.33,1.26-3.75,2.83-5.28,2.44C789.61,773.93,783.9,771.7,777.34,769.49Z"/><path d="M671.44,839.22c-1.22-5.57.1-10.61,5.34-10.6,3.75,0,9.68,3.33,10.84,6.55,3.24,9,9.39,15.18,16.47,20.5,11.45,8.6,20,19,23.92,32.93.4,1.42.73,3.66,0,4.38-.91.89-3.17,1.12-4.51.66a16.32,16.32,0,0,1-5.18-3.4q-10.23-9.13-20.28-18.45a7.32,7.32,0,0,1-1.94-2.73c-2.67-7.66-4.93-15.47-7.91-23S679.37,836.39,671.44,839.22Z"/><path d="M490.17,803.84c6.3,3,12.5,6.3,18.91,9.09,10.76,4.69,21.05,3.07,31.12-2.61,1.73-1,4.56,0,6.88,0-.33,2.32.09,5.18-1.12,6.88-9.63,13.49-26.7,15.53-39.51,5.06-2.91-2.38-6.27-4.25-8.92-6.86-3.28-3.25-6-7-9-10.57Z"/><path d="M749.75,819.83c-11.74,5.52-31.74-3.25-42.81-17.39C719.66,810.28,731.9,819.27,749.75,819.83Z"/></g></g></svg>